HIERARCHY
ROOT newVegas:Hips
{
	OFFSET 0.000000 96.479958 0.000000
	CHANNELS 6 Xposition Yposition Zposition Xrotation Yrotation Zrotation
	JOINT newVegas:Pelvis
	{
		OFFSET 0.000000 0.000000 0.000000
		CHANNELS 3 Xrotation Yrotation Zrotation
		JOINT newVegas:LeftUpLeg
		{
			OFFSET 18.735201 -5.666702 -4.541200
			CHANNELS 3 Xrotation Yrotation Zrotation
			JOINT newVegas:LeftLeg
			{
				OFFSET -0.021200 -31.938179 0.493100
				CHANNELS 3 Xrotation Yrotation Zrotation
				JOINT newVegas:LeftFoot
				{
					OFFSET 0.021200 -31.938179 -4.336299
					CHANNELS 3 Xrotation Yrotation Zrotation
					JOINT newVegas:LeftToeBase
					{
						OFFSET 0.943001 -26.722000 15.023500
						CHANNELS 3 Xrotation Yrotation Zrotation
						End Site
						{
							OFFSET 0.000000 30.670183 0.000000
						}
					}
				}
				JOINT newVegas:Left_PantLeg
				{
					OFFSET 0.663870 -9.044666 -1.108900
					CHANNELS 3 Xrotation Yrotation Zrotation
					End Site
					{
						OFFSET 1.415995 20.635357 0.000000
					}
				}
			}
		}
		JOINT newVegas:RightUpLeg
		{
			OFFSET -18.735201 -5.666702 -4.541200
			CHANNELS 3 Xrotation Yrotation Zrotation
			JOINT newVegas:RightLeg
			{
				OFFSET 0.018946 -31.938133 0.493100
				CHANNELS 3 Xrotation Yrotation Zrotation
				JOINT newVegas:RightFoot
				{
					OFFSET -0.018946 -31.938126 -4.336299
					CHANNELS 3 Xrotation Yrotation Zrotation
					JOINT newVegas:RightToeBase
					{
						OFFSET -0.943001 -26.722004 15.023500
						CHANNELS 3 Xrotation Yrotation Zrotation
						End Site
						{
							OFFSET 0.000000 30.670187 0.000000
						}
					}
				}
				JOINT newVegas:Right_PantLeg
				{
					OFFSET -0.661674 -9.044716 -1.108900
					CHANNELS 3 Xrotation Yrotation Zrotation
					End Site
					{
						OFFSET -1.415958 20.635269 0.000000
					}
				}
			}
		}
	}
	JOINT newVegas:Spine
	{
		OFFSET 0.000000 10.199997 -0.299500
		CHANNELS 3 Xrotation Yrotation Zrotation
		JOINT newVegas:Spine1
		{
			OFFSET 0.000000 11.900002 -1.516600
			CHANNELS 3 Xrotation Yrotation Zrotation
			JOINT newVegas:Spine2
			{
				OFFSET 0.000000 13.600006 -2.842500
				CHANNELS 3 Xrotation Yrotation Zrotation
				JOINT newVegas:Neck
				{
					OFFSET 0.000000 9.624100 -2.890100
					CHANNELS 3 Xrotation Yrotation Zrotation
					JOINT newVegas:Head
					{
						OFFSET 0.000000 14.068802 -1.351900
						CHANNELS 3 Xrotation Yrotation Zrotation
						JOINT newVegas:Hair_Back
						{
							OFFSET 0.000000 3.231903 -17.524799
							CHANNELS 3 Xrotation Yrotation Zrotation
							End Site
							{
								OFFSET 0.000000 19.849884 0.000000
							}
						}
						JOINT newVegas:Hair_Front
						{
							OFFSET 0.000000 31.260406 4.573800
							CHANNELS 3 Xrotation Yrotation Zrotation
							JOINT newVegas:Hair_Front1
							{
								OFFSET 0.000000 2.284103 11.993300
								CHANNELS 3 Xrotation Yrotation Zrotation
								JOINT newVegas:Hair_Front2
								{
									OFFSET 0.000000 2.284103 11.993300
									CHANNELS 3 Xrotation Yrotation Zrotation
									End Site
									{
										OFFSET 0.000000 12.208862 0.000000
									}
								}
							}
						}
						JOINT newVegas:Jowel
						{
							OFFSET 0.000000 -7.458206 6.864100
							CHANNELS 3 Xrotation Yrotation Zrotation
							End Site
							{
								OFFSET 0.000000 19.849884 0.000000
							}
						}
					}
				}
				JOINT newVegas:LeftShoulder
				{
					OFFSET 15.263000 10.923401 -0.547700
					CHANNELS 3 Xrotation Yrotation Zrotation
					JOINT newVegas:LeftArm
					{
						OFFSET 25.438599 -2.830597 -13.032500
						CHANNELS 3 Xrotation Yrotation Zrotation
						JOINT newVegas:LeftForeArm
						{
							OFFSET 29.960503 0.000000 0.000000
							CHANNELS 3 Xrotation Yrotation Zrotation
							JOINT newVegas:LeftHand
							{
								OFFSET 27.849251 0.000000 0.000000
								CHANNELS 3 Xrotation Yrotation Zrotation
								JOINT newVegas:LeftHandThumb1
								{
									OFFSET 4.487587 -3.305161 6.305391
									CHANNELS 3 Xrotation Yrotation Zrotation
									JOINT newVegas:LeftHandThumb2
									{
										OFFSET 5.480453 -3.164139 3.164143
										CHANNELS 3 Xrotation Yrotation Zrotation
										JOINT newVegas:LeftHandThumb3
										{
											OFFSET 5.159721 -2.978973 2.978967
											CHANNELS 3 Xrotation Yrotation Zrotation
											End Site
											{
												OFFSET 2.494507 5.926697 1.738678
											}
										}
									}
								}
								JOINT newVegas:LeftHandIndex1
								{
									OFFSET 18.578728 -0.527832 5.208049
									CHANNELS 3 Xrotation Yrotation Zrotation
									JOINT newVegas:LeftHandIndex2
									{
										OFFSET 3.192009 0.000000 0.000000
										CHANNELS 3 Xrotation Yrotation Zrotation
										JOINT newVegas:LeftHandIndex3
										{
											OFFSET 3.835129 0.000000 0.000000
											CHANNELS 3 Xrotation Yrotation Zrotation
											End Site
											{
												OFFSET -0.034599 3.816971 0.371180
											}
										}
									}
								}
								JOINT newVegas:LeftHandMiddle1
								{
									OFFSET 18.476105 0.000000 0.000000
									CHANNELS 3 Xrotation Yrotation Zrotation
									JOINT newVegas:LeftHandMiddle2
									{
										OFFSET 3.324875 0.000000 0.000000
										CHANNELS 3 Xrotation Yrotation Zrotation
										JOINT newVegas:LeftHandMiddle3
										{
											OFFSET 4.596550 0.000000 0.000000
											CHANNELS 3 Xrotation Yrotation Zrotation
											End Site
											{
												OFFSET 0.057701 4.578827 0.399218
											}
										}
									}
								}
								JOINT newVegas:LeftHandRing1
								{
									OFFSET 17.732719 0.121887 -4.201567
									CHANNELS 3 Xrotation Yrotation Zrotation
									JOINT newVegas:LeftHandRing2
									{
										OFFSET 2.733170 0.000000 0.000000
										CHANNELS 3 Xrotation Yrotation Zrotation
										JOINT newVegas:LeftHandRing3
										{
											OFFSET 3.178268 0.000000 0.000000
											CHANNELS 3 Xrotation Yrotation Zrotation
											End Site
											{
												OFFSET 0.119102 3.170624 0.185394
											}
										}
									}
								}
								JOINT newVegas:LeftHandPinky1
								{
									OFFSET 15.989624 -0.606689 -7.535461
									CHANNELS 3 Xrotation Yrotation Zrotation
									JOINT newVegas:LeftHandPinky2
									{
										OFFSET 2.538986 0.000000 0.000000
										CHANNELS 3 Xrotation Yrotation Zrotation
										JOINT newVegas:LeftHandPinky3
										{
											OFFSET 2.593102 0.000000 0.000000
											CHANNELS 3 Xrotation Yrotation Zrotation
											End Site
											{
												OFFSET -0.150902 2.584198 0.152708
											}
										}
									}
								}
							}
							JOINT newVegas:Left_Sleeve
							{
								OFFSET 0.267448 -0.649796 0.577675
								CHANNELS 3 Xrotation Yrotation Zrotation
								End Site
								{
									OFFSET 0.000000 15.991241 0.000000
								}
							}
							JOINT newVegas:Left_CapeC
							{
								OFFSET 15.715958 -8.608795 -6.935905
								CHANNELS 3 Xrotation Yrotation Zrotation
								JOINT newVegas:Left_CapeC1
								{
									OFFSET 0.000000 -8.688499 0.000000
									CHANNELS 3 Xrotation Yrotation Zrotation
									End Site
									{
										OFFSET 0.000000 8.688499 0.000000
									}
								}
							}
						}
						JOINT newVegas:Left_CapeB
						{
							OFFSET 26.118385 -8.608795 -7.079235
							CHANNELS 3 Xrotation Yrotation Zrotation
							JOINT newVegas:Left_CapeB1
							{
								OFFSET 0.000000 -8.688499 0.000000
								CHANNELS 3 Xrotation Yrotation Zrotation
								End Site
								{
									OFFSET 0.000000 8.688499 0.000000
								}
							}
						}
						JOINT newVegas:Left_CapeA
						{
							OFFSET 5.115639 -8.608795 -10.395809
							CHANNELS 3 Xrotation Yrotation Zrotation
							JOINT newVegas:Left_CapeA1
							{
								OFFSET 0.000000 -8.688499 0.000000
								CHANNELS 3 Xrotation Yrotation Zrotation
								End Site
								{
									OFFSET 0.000000 8.688499 0.000000
								}
							}
						}
					}
				}
				JOINT newVegas:RightShoulder
				{
					OFFSET -15.263000 10.923401 -0.547700
					CHANNELS 3 Xrotation Yrotation Zrotation
					JOINT newVegas:RightArm
					{
						OFFSET -25.438599 -2.830597 -13.032500
						CHANNELS 3 Xrotation Yrotation Zrotation
						JOINT newVegas:RightForeArm
						{
							OFFSET -29.960503 0.000000 0.000000
							CHANNELS 3 Xrotation Yrotation Zrotation
							JOINT newVegas:RightHand
							{
								OFFSET -27.849251 0.000000 0.000000
								CHANNELS 3 Xrotation Yrotation Zrotation
								JOINT newVegas:RightHandThumb1
								{
									OFFSET -4.487587 -3.305161 6.305391
									CHANNELS 3 Xrotation Yrotation Zrotation
									JOINT newVegas:RightHandThumb2
									{
										OFFSET -5.480453 -3.164139 3.164143
										CHANNELS 3 Xrotation Yrotation Zrotation
										JOINT newVegas:RightHandThumb3
										{
											OFFSET -5.159721 -2.978973 2.978967
											CHANNELS 3 Xrotation Yrotation Zrotation
											End Site
											{
												OFFSET -2.494507 5.926697 1.738678
											}
										}
									}
								}
								JOINT newVegas:RightHandIndex1
								{
									OFFSET -18.578728 -0.527832 5.208049
									CHANNELS 3 Xrotation Yrotation Zrotation
									JOINT newVegas:RightHandIndex2
									{
										OFFSET -3.192009 0.000000 0.000000
										CHANNELS 3 Xrotation Yrotation Zrotation
										JOINT newVegas:RightHandIndex3
										{
											OFFSET -3.835129 0.000000 0.000000
											CHANNELS 3 Xrotation Yrotation Zrotation
											End Site
											{
												OFFSET 0.034599 3.816971 0.371180
											}
										}
									}
								}
								JOINT newVegas:RightHandMiddle1
								{
									OFFSET -18.476105 0.000000 0.000000
									CHANNELS 3 Xrotation Yrotation Zrotation
									JOINT newVegas:RightHandMiddle2
									{
										OFFSET -3.324875 0.000000 0.000000
										CHANNELS 3 Xrotation Yrotation Zrotation
										JOINT newVegas:RightHandMiddle3
										{
											OFFSET -4.596550 0.000000 0.000000
											CHANNELS 3 Xrotation Yrotation Zrotation
											End Site
											{
												OFFSET -0.057701 4.578827 0.399218
											}
										}
									}
								}
								JOINT newVegas:RightHandRing1
								{
									OFFSET -17.732719 0.121887 -4.201567
									CHANNELS 3 Xrotation Yrotation Zrotation
									JOINT newVegas:RightHandRing2
									{
										OFFSET -2.733170 0.000000 0.000000
										CHANNELS 3 Xrotation Yrotation Zrotation
										JOINT newVegas:RightHandRing3
										{
											OFFSET -3.178268 0.000000 0.000000
											CHANNELS 3 Xrotation Yrotation Zrotation
											End Site
											{
												OFFSET -0.119102 3.170624 0.185394
											}
										}
									}
								}
								JOINT newVegas:RightHandPinky1
								{
									OFFSET -15.989624 -0.606689 -7.535461
									CHANNELS 3 Xrotation Yrotation Zrotation
									JOINT newVegas:RightHandPinky2
									{
										OFFSET -2.538986 0.000000 0.000000
										CHANNELS 3 Xrotation Yrotation Zrotation
										JOINT newVegas:RightHandPinky3
										{
											OFFSET -2.593102 0.000000 0.000000
											CHANNELS 3 Xrotation Yrotation Zrotation
											End Site
											{
												OFFSET 0.150902 2.584198 0.152708
											}
										}
									}
								}
							}
							JOINT newVegas:Right_CapeC
							{
								OFFSET -15.715958 -8.608795 -6.935905
								CHANNELS 3 Xrotation Yrotation Zrotation
								JOINT newVegas:Right_CapeC1
								{
									OFFSET 0.000000 -8.688499 0.000000
									CHANNELS 3 Xrotation Yrotation Zrotation
									End Site
									{
										OFFSET 0.000000 8.688499 0.000000
									}
								}
							}
							JOINT newVegas:Right_Sleeve
							{
								OFFSET -0.267448 -0.649994 0.577675
								CHANNELS 3 Xrotation Yrotation Zrotation
								End Site
								{
									OFFSET 0.000000 15.991302 0.000000
								}
							}
						}
						JOINT newVegas:Right_CapeA
						{
							OFFSET -5.115540 -8.608795 -10.395824
							CHANNELS 3 Xrotation Yrotation Zrotation
							JOINT newVegas:Right_CapeA1
							{
								OFFSET 0.000000 -8.688499 0.000000
								CHANNELS 3 Xrotation Yrotation Zrotation
								End Site
								{
									OFFSET 0.000000 8.688499 0.000000
								}
							}
						}
						JOINT newVegas:Right_CapeB
						{
							OFFSET -26.118187 -8.608795 -7.079266
							CHANNELS 3 Xrotation Yrotation Zrotation
							JOINT newVegas:Right_CapeB1
							{
								OFFSET 0.000000 -8.688499 0.000000
								CHANNELS 3 Xrotation Yrotation Zrotation
								End Site
								{
									OFFSET 0.000000 8.688499 0.000000
								}
							}
						}
					}
				}
				JOINT newVegas:Left_Collar
				{
					OFFSET 18.625099 8.655502 8.828100
					CHANNELS 3 Xrotation Yrotation Zrotation
					JOINT newVegas:Left_Collar1
					{
						OFFSET 14.783401 10.540405 -1.259500
						CHANNELS 3 Xrotation Yrotation Zrotation
						End Site
						{
							OFFSET 0.000000 18.199875 0.000000
						}
					}
				}
				JOINT newVegas:Collar_Back
				{
					OFFSET 0.000000 15.630707 -20.132601
					CHANNELS 3 Xrotation Yrotation Zrotation
					End Site
					{
						OFFSET 0.000000 22.523010 0.000000
					}
				}
				JOINT newVegas:Left_Peck
				{
					OFFSET 17.239599 -5.132599 25.482599
					CHANNELS 3 Xrotation Yrotation Zrotation
					End Site
					{
						OFFSET 0.000000 22.523010 0.000000
					}
				}
				JOINT newVegas:Right_Peck
				{
					OFFSET -17.239599 -5.132202 25.482599
					CHANNELS 3 Xrotation Yrotation Zrotation
					End Site
					{
						OFFSET 0.000000 22.523010 0.000000
					}
				}
				JOINT newVegas:Right_Collar
				{
					OFFSET -18.625099 8.655792 8.828100
					CHANNELS 3 Xrotation Yrotation Zrotation
					JOINT newVegas:Right_Collar1
					{
						OFFSET -14.783401 10.539993 -1.259500
						CHANNELS 3 Xrotation Yrotation Zrotation
						End Site
						{
							OFFSET 0.000000 18.199631 0.000000
						}
					}
				}
			}
		}
		JOINT newVegas:Belly
		{
			OFFSET 0.000000 -6.540398 9.014299
			CHANNELS 3 Xrotation Yrotation Zrotation
			End Site
			{
				OFFSET 0.000000 11.566666 0.000000
			}
		}
	}
	JOINT newVegas:ElvisFacialAnim_Joint
	{
		OFFSET 1.000000 -95.330101 -8.825800
		CHANNELS 3 Xrotation Yrotation Zrotation
		End Site
		{
			OFFSET 0.000000 35.315800 0.000000
		}
	}
}
MOTION
Frames: 4
Frame Time: 0.016667
189.782623 20.555290 -38.796085 54.810683 205.943003 230.505224 -0.000002 -0.000001 -0.000002 -88.335376 7.738920 8.212960 116.233236 -3.996902 -3.450994 5.529791 -3.791017 -8.276707 0.000000 0.000000 -0.000000 0.000002 0.000001 -0.000003 -111.091941 -5.202774 0.040210 89.581162 2.554686 2.875750 -7.442385 1.481645 17.883546 -0.000000 -0.000002 -0.000003 -0.000001 0.000001 0.000001 12.079044 3.524517 2.070261 24.200994 5.707152 2.256767 24.200991 5.707166 2.256770 11.421506 0.576586 -3.901749 11.421503 0.576584 -3.901769 0.000004 0.000002 -0.000001 11.421443 0.576584 -3.901759 11.421609 0.576588 -3.901765 0.000000 -0.000001 -0.000002 0.000004 0.000002 -0.000000 0.826483 4.176656 27.061192 -21.500732 -16.600698 -7.566941 0.248530 -108.744740 0.234040 -1.960208 7.066430 19.245274 -3.269888 -2.950320 2.445908 6.363636 5.687391 -6.261546 0.000002 0.000000 -0.000004 -2.181515 1.448987 -9.293709 0.033631 0.552091 -14.681555 -0.000000 -0.000002 0.000001 -0.369298 0.913317 -21.544706 -0.502609 -1.800290 -26.483413 0.000002 0.000002 -0.000002 -0.931025 3.368087 -28.899193 -0.351980 -2.121512 -21.850808 -0.000001 -0.000001 -0.000000 0.523311 5.278453 -26.022929 -0.846845 -5.236670 -31.985431 -0.000001 -0.000003 -0.000002 -0.000000 0.000000 -0.000000 -0.000000 0.000000 -0.000000 -0.000001 0.000000 -0.000001 -0.000000 0.000000 0.000001 -0.000000 0.000000 0.000001 -0.000000 0.000000 0.000001 -0.000000 -0.000000 0.000001 2.759745 8.250647 -10.588920 -57.649044 -5.834108 42.145375 0.058588 119.763378 -0.066498 30.555063 10.082327 -24.848684 6.507444 5.943996 -8.205802 0.308324 -2.673184 -2.026424 -0.000000 -0.000003 0.000001 -3.218620 0.338191 -13.313585 0.023763 0.208825 -0.000037 -0.000000 -0.000001 -0.000001 -2.741310 -2.097339 -13.344325 0.039700 -0.113987 0.011386 0.000000 -0.000000 -0.000000 -2.221661 -6.757300 -8.023623 -0.013501 0.271975 -0.000011 -0.000000 0.000001 0.000000 2.103455 -7.884688 4.939286 -0.291353 5.357232 14.254937 -0.000001 0.000002 -0.000001 -0.000000 -0.000001 -0.000001 -0.000000 -0.000001 -0.000003 -0.000000 -0.000001 0.000000 0.000000 -0.000003 -0.000000 0.000000 -0.000002 -0.000001 0.000000 -0.000003 -0.000000 0.000000 -0.000002 -0.000001 0.000000 0.000000 -0.000003 0.000000 0.000000 -0.000003 0.000000 0.000000 -0.000003 0.000000 0.000000 -0.000003 0.000000 0.000000 -0.000003 0.000000 0.000000 -0.000003 0.000000 0.000000 -0.000003 0.000002 0.000000 -0.000002 -0.000002 -0.000001 -0.000002 
191.782104 18.976807 -39.307507 55.577683 200.661464 234.840673 -0.000004 0.000000 -0.000001 -83.211006 6.099420 6.986027 115.474812 -3.701165 -3.433634 5.728531 -5.476270 -11.084849 -0.000000 -0.000000 -0.000003 -0.000000 -0.000001 -0.000003 -106.514444 -7.329859 0.451741 91.696526 2.279175 2.830054 -10.516522 1.011369 15.768762 -0.000004 -0.000002 -0.000003 -0.000002 -0.000001 -0.000003 12.071145 3.846960 2.618163 24.205456 6.078917 2.810438 24.205475 6.078901 2.810421 11.544781 0.753201 -3.855165 11.544794 0.753184 -3.855151 0.000003 0.000000 -0.000003 11.544792 0.753217 -3.855181 11.544808 0.753200 -3.855155 0.000001 -0.000001 -0.000001 0.000003 0.000000 -0.000001 0.899518 3.368692 24.482586 -14.606313 -19.867026 -3.868299 0.354819 -104.424297 0.337987 -4.669645 6.592306 21.857609 -3.133896 -3.128515 2.072175 6.459735 5.436988 -6.660191 0.000001 0.000001 -0.000001 -2.376738 1.613022 -8.894083 0.030283 0.532991 -14.400260 -0.000002 -0.000001 -0.000003 -0.361505 0.964850 -21.923715 -0.516458 -1.835425 -26.743240 -0.000000 0.000001 -0.000002 -0.959564 3.242979 -28.884242 -0.358830 -2.130783 -22.188216 0.000002 -0.000000 -0.000004 0.422613 4.920223 -26.484310 -0.811165 -5.131032 -31.831858 -0.000001 -0.000001 -0.000003 0.000000 0.000001 -0.000000 0.000000 0.000001 -0.000000 -0.000000 0.000000 -0.000001 -0.000001 0.000000 0.000001 -0.000002 -0.000001 0.000001 -0.000001 0.000000 0.000001 -0.000001 -0.000001 0.000001 3.074231 7.560853 -12.803206 -40.315461 -8.927972 48.040125 0.085564 116.790661 -0.090112 40.428576 7.346913 -27.686421 9.080920 6.991065 -6.854931 -0.534575 -0.975005 -1.909476 -0.000000 -0.000000 -0.000000 -4.050271 -0.157101 -12.989640 0.010739 0.010883 0.000002 0.000000 0.000000 -0.000002 -3.380172 -2.013621 -16.151140 0.066073 -0.021681 0.003129 -0.000000 0.000001 -0.000000 -4.069078 -5.491785 -3.840695 0.001736 0.401753 -0.000023 -0.000001 -0.000001 0.000000 0.468015 -4.535787 10.858785 -0.591296 6.307205 20.037581 0.000001 0.000005 -0.000001 -0.000000 -0.000000 -0.000001 0.000000 -0.000000 0.000000 -0.000000 -0.000000 -0.000000 -0.000000 -0.000001 0.000002 -0.000000 0.000000 0.000001 -0.000000 -0.000001 0.000002 -0.000000 -0.000000 0.000001 0.000003 -0.000001 0.000002 0.000003 -0.000001 0.000002 0.000003 -0.000001 0.000002 0.000003 -0.000001 0.000002 0.000003 -0.000001 0.000002 0.000003 -0.000001 0.000002 0.000003 -0.000001 0.000002 -0.000000 0.000003 -0.000002 -0.000004 0.000000 -0.000001 
193.905136 17.767006 -39.878193 55.671055 195.090447 239.391929 -0.000000 -0.000002 0.000001 -79.556022 5.487426 5.736328 114.762532 -2.907851 -3.342460 7.102747 -6.034006 -12.131877 -0.000000 -0.000001 -0.000005 -0.000001 0.000000 0.000002 -101.682693 -8.462553 0.450015 92.832974 2.004677 2.782940 -13.493631 0.669698 13.833082 -0.000001 0.000000 -0.000001 0.000001 0.000003 0.000003 11.998272 4.004302 3.097201 24.076789 6.263986 3.298519 24.076792 6.263980 3.298504 11.669907 0.888083 -3.667152 11.669925 0.888098 -3.667167 0.000001 0.000001 -0.000002 11.669929 0.888112 -3.667164 11.669899 0.888069 -3.667146 -0.000000 -0.000001 -0.000000 0.000001 0.000001 -0.000003 1.106697 2.229509 21.865684 -8.044691 -21.912753 0.331389 0.503409 -100.515762 0.482868 -7.464038 4.378059 27.133107 -3.030163 -3.261363 1.789473 6.532176 5.246532 -6.961256 -0.000000 -0.000000 -0.000003 -2.566438 1.768161 -8.498506 0.026918 0.514260 -14.103384 0.000000 -0.000001 0.000002 -0.349278 1.015422 -22.255698 -0.529870 -1.867094 -26.970417 0.000002 0.000001 0.000001 -1.000493 3.115056 -28.867719 -0.363706 -2.137681 -22.483338 0.000001 0.000001 0.000003 0.306752 4.583568 -26.815826 -0.771142 -5.026565 -31.633656 -0.000002 -0.000003 -0.000001 0.000000 -0.000001 0.000004 0.000000 -0.000001 0.000004 0.000000 -0.000001 0.000004 -0.000000 0.000000 -0.000000 -0.000001 -0.000001 -0.000000 -0.000000 0.000000 -0.000000 -0.000002 0.000000 -0.000000 3.006499 6.979980 -13.209524 -24.883253 -9.196748 51.059325 0.144674 108.653481 -0.132789 49.791601 0.108398 -33.736469 11.232867 7.962255 -5.436339 -0.991360 -0.153157 -1.907230 -0.000003 0.000000 0.000003 -4.856079 -0.741976 -11.696880 0.000002 -0.423349 0.042113 -0.000001 0.000003 0.000001 -4.002451 -1.861613 -17.305973 0.077302 0.012094 0.000132 0.000001 -0.000001 -0.000001 -6.095257 -4.440954 1.307403 -0.008290 0.878756 3.650591 0.000001 -0.000001 0.000000 -1.644611 -1.402756 16.800530 -0.986748 7.222220 25.836230 0.000001 0.000002 -0.000002 0.000001 0.000003 0.000002 0.000001 -0.000001 0.000000 0.000001 0.000002 0.000001 0.000003 -0.000001 -0.000002 0.000003 0.000000 -0.000002 0.000003 -0.000001 -0.000002 0.000002 -0.000000 -0.000002 -0.000003 -0.000002 0.000002 -0.000003 -0.000002 0.000002 -0.000003 -0.000002 0.000002 -0.000003 -0.000002 0.000002 -0.000003 -0.000002 0.000002 -0.000003 -0.000002 0.000002 -0.000003 -0.000002 0.000002 -0.000000 -0.000001 0.000001 -0.000000 -0.000002 0.000001 
196.264160 16.597481 -40.530167 55.202730 188.982032 244.309310 -0.000001 0.000000 -0.000002 -78.218131 6.575290 4.526913 113.880202 -1.518769 -3.164019 10.656902 -4.458799 -10.055346 -0.000002 0.000001 -0.000000 0.000000 0.000001 0.000002 -97.724974 -8.163628 -0.178428 92.967966 1.778179 2.744076 -15.747404 0.780441 12.520334 -0.000002 0.000002 -0.000001 0.000001 -0.000001 -0.000002 11.808605 4.004600 3.416134 23.705765 6.193824 3.640059 23.705763 6.193820 3.640064 11.744322 0.946817 -3.411778 11.744325 0.946791 -3.411785 0.000001 -0.000001 0.000000 11.744310 0.946795 -3.411767 11.744412 0.946877 -3.411791 -0.000000 -0.000000 -0.000001 0.000001 -0.000001 0.000001 1.311810 1.043488 19.573570 -2.184749 -21.315408 2.321627 0.553148 -99.110280 0.528720 -7.420668 0.340499 36.334803 -1.617106 -3.443766 1.781890 6.670559 5.016645 -7.429588 0.000001 -0.000002 -0.000003 -2.740592 1.901289 -8.112381 0.023666 0.496719 -13.783380 0.000000 -0.000001 0.000002 -0.335097 1.060531 -22.530888 -0.542008 -1.893759 -27.158437 0.000000 -0.000001 0.000001 -1.054347 2.979434 -28.849189 -0.366852 -2.142721 -22.727697 -0.000001 -0.000001 -0.000000 0.166342 4.266779 -27.072766 -0.732797 -4.937671 -31.470916 -0.000000 0.000002 0.000000 -0.000001 0.000001 -0.000001 -0.000001 0.000001 -0.000001 -0.000002 0.000001 -0.000002 0.000000 -0.000001 -0.000000 0.000000 -0.000001 -0.000001 0.000000 -0.000001 -0.000000 -0.000001 -0.000002 -0.000001 2.058696 6.641524 -9.781844 -17.790254 -3.547548 48.458703 0.545965 93.753588 -0.516909 44.210906 -8.940494 -42.468959 12.926586 8.813801 -4.083798 -1.071289 -0.171210 -2.021256 0.000000 -0.000001 -0.000004 -5.540308 -1.397979 -9.917187 0.014415 -0.663876 4.501026 -0.000000 0.000000 0.000002 -4.569642 -1.700317 -16.210587 0.061362 -0.036733 0.004476 0.000002 0.000002 -0.000000 -8.208129 -3.920790 6.976351 -0.122031 1.728484 11.591776 0.000000 -0.000001 0.000001 -4.173459 1.073066 22.333093 -1.431511 8.024083 31.180920 -0.000001 0.000003 0.000001 0.000001 0.000003 0.000003 0.000001 0.000002 0.000006 0.000001 0.000002 0.000003 -0.000001 0.000001 -0.000001 -0.000001 0.000002 -0.000001 -0.000001 0.000001 -0.000001 -0.000001 0.000002 -0.000000 -0.000003 0.000000 0.000000 -0.000003 0.000000 0.000000 -0.000003 0.000000 0.000000 -0.000003 0.000000 0.000000 -0.000003 0.000000 0.000000 -0.000003 0.000000 0.000000 -0.000003 0.000000 0.000000 0.000000 -0.000001 -0.000003 -0.000001 0.000000 -0.000002 
